<svg id="Layer_3" enable-background="new 0 0 64 64" height="512" viewBox="0 0 64 64" width="512" xmlns="http://www.w3.org/2000/svg"><path d="m10.191 23c-.12-.65-.191-1.316-.191-2v-2c-1.103 0-2 .897-2 2s.897 2 2 2z"/><path d="m5 49h3v12h-3z"/><path d="m3 42.828v4.172h5v-9.935c-1.242.176-2.39.74-3.293 1.642-1.101 1.101-1.707 2.564-1.707 4.121z"/><path d="m25.502 15.865c-.309.18-.688.18-.998.003l-5.504-3.145v2.277c0 .356-.19.686-.498.865-.308.18-.688.18-.998.003l-5.504-3.145v8.277c0 4.962 4.038 9 9 9s9-4.038 9-9v-7.279l-4-1.333v2.612c0 .356-.19.686-.498.865zm-9.502 2.135h2v2h-2zm5 10c-2.206 0-4-1.794-4-4h2c0 1.103.897 2 2 2s2-.897 2-2h2c0 2.206-1.794 4-4 4zm5-8h-2v-2h2z"/><path d="m8.661 17.247c.421-.15.867-.247 1.339-.247v-6c0-.356.19-.686.498-.865.309-.18.689-.179.998-.003l5.504 3.145v-2.277c0-.356.19-.686.498-.865.309-.18.689-.179.998-.003l5.504 3.145v-2.277c0-.321.154-.623.416-.811.261-.189.595-.239.901-.138l6 2c.408.137.683.518.683.949v4c.472 0 .918.097 1.339.247l.479-.479c1.407-1.407 2.182-3.278 2.182-5.268s-.775-3.861-2.182-5.268c-2.085-2.084-4.856-3.232-7.803-3.232h-10.03c-2.948 0-5.719 1.148-7.803 3.232-1.407 1.407-2.182 3.278-2.182 5.268s.775 3.861 2.182 5.268z"/><path d="m14.071 37h-4.071v24h10v-18.079c-3.06-.44-5.489-2.861-5.929-5.921z"/><path d="m37.293 38.707c-.903-.902-2.051-1.466-3.293-1.642v9.935h5v-4.172c0-1.557-.606-3.02-1.707-4.121z"/><path d="m34 49h3v12h-3z"/><path d="m25.965 36.346c-1.178-1.331-1.857-2.998-1.946-4.777-.96.275-1.971.431-3.019.431s-2.059-.156-3.019-.431c-.089 1.779-.768 3.446-1.946 4.777.181 2.593 2.327 4.654 4.965 4.654s4.784-2.061 4.965-4.654z"/><path d="m22 42.921v18.079h10v-24h-4.071c-.44 3.06-2.869 5.481-5.929 5.921z"/><path d="m32 19v2c0 .684-.071 1.35-.191 2h.191c1.103 0 2-.897 2-2s-.897-2-2-2z"/><path d="m45 28c0 .551.449 1 1 1h14c.551 0 1-.449 1-1v-3h-16z"/><path d="m53 3c-1.103 0-2 .897-2 2h4c0-1.103-.897-2-2-2z"/><path d="m60 7h-14c-.551 0-1 .449-1 1v3h16v-3c0-.551-.449-1-1-1z"/><path d="m45 23h16v-10h-16zm5-6h2v-2h2v2h2v2h-2v2h-2v-2h-2z"/><path d="m47 59h-9v-2h9c2.757 0 5-2.243 5-5v-22h2v22c0 3.859-3.14 7-7 7z"/></svg>